<svg version="1.1" viewBox="0.0 0.0 1030.8582677165355 180.79265091863516" fill="none" stroke="none" stroke-linecap="square" stroke-miterlimit="10" xmlns:xlink="http://www.w3.org/1999/xlink" xmlns="http://www.w3.org/2000/svg"><clipPath id="p.0"><path d="m0 0l1030.8583 0l0 180.79265l-1030.8583 0l0 -180.79265z" clip-rule="nonzero"/></clipPath><g clip-path="url(#p.0)"><path fill="#000000" fill-opacity="0.0" d="m0 0l1030.8583 0l0 180.79265l-1030.8583 0z" fill-rule="evenodd"/><path fill="#000000" fill-opacity="0.0" d="m8.651654 130.60892l1104.3466 0l0 53.007874l-1104.3466 0z" fill-rule="evenodd"/><path fill="#000000" d="m24.432903 157.66954q0 0.75 0.515625 1.078125q0.515625 0.34375 1.828125 0.359375l0 1.375q-4.0 -0.0625 -4.0 -2.671875l0 -3.046875q0 -1.71875 -3.078125 -1.71875l0 -1.40625q3.078125 0 3.078125 -1.71875l0 -3.046875q0 -2.609375 4.0 -2.65625l0 1.359375q-1.3125 0.015625 -1.828125 0.359375q-0.515625 0.328125 -0.515625 1.078125l0 3.015625q0 1.890625 -2.109375 2.265625l0 0.109375q2.109375 0.375 2.109375 2.25l0 3.015625zm9.164322 -13.453125l-0.375 4.796875l-1.40625 0l-0.375 -4.796875l2.15625 0zm3.84375 0l-0.375 4.796875l-1.40625 0l-0.375 -4.796875l2.15625 0zm11.898697 11.953125l0 1.25q-1.1875 0.296875 -2.296875 0.296875q-3.296875 0 -3.296875 -3.140625l0 -5.796875l-2.4375 0l0 -0.859375l2.4375 -0.453125l0.703125 -2.609375l0.953125 0l0 2.671875l3.984375 0l0 1.25l-3.984375 0l0 5.796875q0 1.78125 1.75 1.78125q0.84375 0 2.1875 -0.1875zm7.664322 -12.765625q0.96875 0 0.96875 1.046875q0 0.53125 -0.296875 0.796875q-0.28125 0.25 -0.671875 0.25q-0.96875 0 -0.96875 -1.046875q0 -1.046875 0.96875 -1.046875zm-0.84375 5.4375l-2.4375 -0.1875l0 -1.125l4.109375 0l0 8.703125l3.203125 0.171875l0 1.125l-8.0 0l0 -1.125l3.125 -0.171875l0 -7.390625zm15.179951 8.6875l0 -6.4375q0 -1.328125 -0.25 -1.84375q-0.234375 -0.53125 -0.796875 -0.53125q-0.796875 0 -1.15625 0.765625q-0.359375 0.75 -0.359375 2.53125l0 5.515625l-1.46875 0l0 -6.4375q0 -2.375 -1.140625 -2.375q-0.765625 0 -1.09375 0.734375q-0.328125 0.71875 -0.328125 2.890625l0 5.1875l-1.4687538 0l0 -10.0l1.1562538 0l0.234375 1.34375l0.09375 0q0.609375 -1.53125 1.828125 -1.53125q1.484375 0 1.953125 1.65625l0.046875 0q0.6875 -1.65625 2.0 -1.65625q1.15625 0 1.6875 0.84375q0.53125 0.84375 0.53125 2.8125l0 6.53125l-1.46875 0zm12.273697 -4.6875l-7.046875 0q0.0625 3.421875 3.125 3.421875q1.78125 0 3.375 -0.6875l0 1.453125q-1.515625 0.6875 -3.3125 0.6875q-2.234375 0 -3.578125 -1.359375q-1.328125 -1.375 -1.328125 -3.75q0 -2.421875 1.234375 -3.84375q1.234375 -1.421875 3.296875 -1.421875q1.921875 0 3.078125 1.21875q1.15625 1.21875 1.15625 3.25l0 1.03125zm-7.015625 -1.34375l5.21875 0q0 -2.78125 -2.46875 -2.78125q-2.515625 0 -2.75 2.78125zm10.070572 5.578125l0 -1.5q1.765625 0.78125 3.375 0.78125q2.5 0 2.5 -1.484375q0 -0.515625 -0.453125 -0.890625q-0.4375 -0.390625 -2.046875 -0.96875q-2.125 -0.796875 -2.671875 -1.453125q-0.546875 -0.65625 -0.546875 -1.5625q0 -1.234375 1.015625 -1.9375q1.015625 -0.71875 2.8125 -0.71875q1.796875 0 3.359375 0.671875l-0.546875 1.359375q-1.65625 -0.65625 -2.90625 -0.65625q-2.15625 0 -2.15625 1.21875q0 0.546875 0.453125 0.890625q0.46875 0.328125 2.125 0.921875q1.921875 0.703125 2.546875 1.390625q0.640625 0.671875 0.640625 1.65625q0 1.359375 -1.0625 2.140625q-1.0625 0.78125 -3.015625 0.78125q-2.265625 0 -3.421875 -0.640625zm18.648697 -0.90625l0 1.25q-1.1875 0.296875 -2.296875 0.296875q-3.296875 0 -3.296875 -3.140625l0 -5.796875l-2.4375 0l0 -0.859375l2.4375 -0.453125l0.703125 -2.609375l0.953125 0l0 2.671875l3.984375 0l0 1.25l-3.984375 0l0 5.796875q0 1.78125 1.75 1.78125q0.84375 0 2.1875 -0.1875zm10.054947 1.359375l-0.34375 -1.390625l-0.0625 0q-0.703125 0.890625 -1.453125 1.234375q-0.734375 0.34375 -1.890625 0.34375q-1.484375 0 -2.328125 -0.78125q-0.84375 -0.796875 -0.84375 -2.203125q0 -3.03125 4.640625 -3.171875l1.84375 -0.0625l0 -0.625q0 -2.15625 -2.21875 -2.15625q-1.34375 0 -2.984375 0.75l-0.578125 -1.25q1.78125 -0.875 3.484375 -0.875q2.078125 0 3.0 0.796875q0.921875 0.796875 0.921875 2.546875l0 6.84375l-1.1875 0zm-0.453125 -4.890625l-1.46875 0.0625q-1.78125 0.078125 -2.53125 0.5625q-0.75 0.484375 -0.75 1.484375q0 1.625 1.8125 1.625q1.34375 0 2.140625 -0.734375q0.796875 -0.75 0.796875 -2.09375l0 -0.90625zm12.398697 4.890625l0 -6.4375q0 -1.328125 -0.25 -1.84375q-0.234375 -0.53125 -0.796875 -0.53125q-0.796875 0 -1.15625 0.765625q-0.359375 0.75 -0.359375 2.53125l0 5.515625l-1.46875 0l0 -6.4375q0 -2.375 -1.140625 -2.375q-0.765625 0 -1.09375 0.734375q-0.328125 0.71875 -0.328125 2.890625l0 5.1875l-1.46875 0l0 -10.0l1.15625 0l0.234375 1.34375l0.09375 0q0.609375 -1.53125 1.828125 -1.53125q1.484375 0 1.953125 1.65625l0.046875 0q0.6875 -1.65625 2.0 -1.65625q1.15625 0 1.6875 0.84375q0.53125 0.84375 0.53125 2.8125l0 6.53125l-1.46875 0zm5.383072 -1.265625l-0.109375 0q0.109375 1.171875 0.109375 1.46875l0 4.28125l-1.65625 0l0 -14.484375l1.34375 0l0.25 1.34375l0.0625 0q1.0 -1.53125 2.9375 -1.53125q1.828125 0 2.875 1.375q1.046875 1.359375 1.046875 3.796875q0 2.453125 -1.046875 3.828125q-1.046875 1.375 -2.875 1.375q-1.890625 0 -2.9375 -1.453125zm0 -4.125l0 0.375q0 2.0625 0.625 2.953125q0.640625 0.875 2.03125 0.875q2.46875 0 2.46875 -3.84375q0 -3.78125 -2.484375 -3.78125q-1.390625 0 -2.0 0.8125q-0.59375 0.796875 -0.640625 2.609375zm12.851822 -7.921875l-0.375 4.796875l-1.40625 0l-0.375 -4.796875l2.15625 0zm3.84375 0l-0.375 4.796875l-1.40625 0l-0.375 -4.796875l2.15625 0zm8.195572 3.0625q1.15625 0 1.15625 1.265625q0 1.265625 -1.15625 1.265625q-1.15625 0 -1.15625 -1.265625q0 -1.265625 1.15625 -1.265625zm0 7.96875q1.15625 0 1.15625 1.265625q0 1.28125 -1.15625 1.28125q-1.15625 0 -1.15625 -1.28125q0 -1.265625 1.15625 -1.265625zm10.351822 -11.03125l-0.375 4.796875l-1.40625 0l-0.375 -4.796875l2.15625 0zm3.84375 0l-0.375 4.796875l-1.40625 0l-0.375 -4.796875l2.15625 0zm12.336197 13.3125l-8.296875 0l0 -1.421875l3.1875 -3.46875q1.78125 -1.9375 2.34375 -2.890625q0.5625 -0.953125 0.5625 -2.109375q0 -1.015625 -0.578125 -1.609375q-0.578125 -0.609375 -1.5625 -0.609375q-1.453125 0 -2.890625 1.25l-0.9375 -1.078125q1.75 -1.578125 3.84375 -1.578125q1.765625 0 2.78125 0.96875q1.03125 0.96875 1.03125 2.59375q0 1.09375 -0.546875 2.234375q-0.53125 1.125 -2.640625 3.40625l-2.5625 2.734375l0 0.0625l6.265625 0l0 1.515625zm7.039322 0.1875q-2.09375 0 -3.171875 -1.765625q-1.0625 -1.765625 -1.0625 -5.09375q0 -6.859375 4.234375 -6.859375q2.109375 0 3.1875 1.765625q1.078125 1.765625 1.078125 5.09375q0 6.859375 -4.265625 6.859375zm0 -1.421875q1.34375 0 1.96875 -1.28125q0.625 -1.28125 0.625 -4.15625q0 -2.875 -0.625 -4.15625q-0.625 -1.28125 -1.96875 -1.28125q-1.328125 0 -1.9375 1.28125q-0.609375 1.265625 -0.609375 4.15625q0 2.890625 0.609375 4.171875q0.609375 1.265625 1.9375 1.265625zm12.523697 1.234375l-1.609375 0l0 -8.3125q0 -1.109375 0.078125 -3.296875q-0.359375 0.390625 -1.109375 1.03125l-1.328125 1.109375l-0.890625 -1.125l3.484375 -2.71875l1.375 0l0 13.3125zm11.242447 -7.046875q2.828125 1.453125 2.828125 3.578125q0 1.640625 -1.15625 2.65625q-1.140625 1.0 -3.03125 1.0q-1.96875 0 -3.078125 -0.9375q-1.09375 -0.953125 -1.09375 -2.640625q0 -2.34375 2.5625 -3.59375q-2.140625 -1.328125 -2.140625 -3.359375q0 -1.46875 1.0625 -2.328125q1.0625 -0.859375 2.6875 -0.859375q1.671875 0 2.703125 0.875q1.046875 0.859375 1.046875 2.328125q0 2.109375 -2.390625 3.28125zm-1.34375 -0.671875q2.109375 -0.9375 2.109375 -2.53125q0 -0.921875 -0.578125 -1.40625q-0.5625 -0.484375 -1.5625 -0.484375q-0.96875 0 -1.546875 0.484375q-0.5625 0.484375 -0.5625 1.40625q0 0.8125 0.453125 1.390625q0.453125 0.5625 1.6875 1.140625zm-0.25 1.375q-2.3125 1.109375 -2.3125 2.96875q0 2.1875 2.515625 2.1875q1.234375 0 1.90625 -0.59375q0.6875 -0.609375 0.6875 -1.671875q0 -0.8125 -0.578125 -1.4375q-0.578125 -0.640625 -1.953125 -1.328125l-0.265625 -0.125zm8.429947 2.109375l0 -1.53125l6.0 0l0 1.53125l-6.0 0zm14.179947 4.421875q-2.09375 0 -3.171875 -1.765625q-1.0625 -1.765625 -1.0625 -5.09375q0 -6.859375 4.234375 -6.859375q2.109375 0 3.1875 1.765625q1.078125 1.765625 1.078125 5.09375q0 6.859375 -4.265625 6.859375zm0 -1.421875q1.34375 0 1.96875 -1.28125q0.625 -1.28125 0.625 -4.15625q0 -2.875 -0.625 -4.15625q-0.625 -1.28125 -1.96875 -1.28125q-1.328125 0 -1.9375 1.28125q-0.609375 1.265625 -0.609375 4.15625q0 2.890625 0.609375 4.171875q0.609375 1.265625 1.9375 1.265625zm7.179947 0.703125l0 -1.578125q1.3125 0.875 3.28125 0.875q3.0625 0 3.0625 -2.859375q0 -2.671875 -3.140625 -2.671875q-0.796875 0 -2.09375 0.234375l-0.828125 -0.515625l0.5 -6.265625l6.296875 0l0 1.5l-4.84375 0l-0.359375 3.828125q0.96875 -0.1875 1.90625 -0.1875q1.90625 0 3.078125 1.046875q1.1875 1.046875 1.1875 2.859375q0 2.125 -1.265625 3.296875q-1.25 1.15625 -3.53125 1.15625q-2.046875 0 -3.25 -0.71875zm12.226822 -3.703125l0 -1.53125l6.0 0l0 1.53125l-6.0 0zm18.336182 4.234375l-8.296875 0l0 -1.421875l3.1875 -3.46875q1.78125 -1.9375 2.34375 -2.890625q0.5625 -0.953125 0.5625 -2.109375q0 -1.015625 -0.578125 -1.609375q-0.578125 -0.609375 -1.5625 -0.609375q-1.453125 0 -2.890625 1.25l-0.9375 -1.078125q1.75 -1.578125 3.84375 -1.578125q1.765625 0 2.78125 0.96875q1.03125 0.96875 1.03125 2.59375q0 1.09375 -0.546875 2.234375q-0.53125 1.125 -2.640625 3.40625l-2.5625 2.734375l0 0.0625l6.265625 0l0 1.515625zm11.195587 0l-8.296875 0l0 -1.421875l3.1875 -3.46875q1.78125 -1.9375 2.34375 -2.890625q0.5625 -0.953125 0.5625 -2.109375q0 -1.015625 -0.578125 -1.609375q-0.578125 -0.609375 -1.5625 -0.609375q-1.453125 0 -2.890625 1.25l-0.9375 -1.078125q1.75 -1.578125 3.84375 -1.578125q1.765625 0 2.78125 0.96875q1.03125 0.96875 1.03125 2.59375q0 1.09375 -0.546875 2.234375q-0.53125 1.125 -2.640625 3.40625l-2.5625 2.734375l0 0.0625l6.265625 0l0 1.515625zm22.391113 0l-8.296875 0l0 -1.421875l3.1875 -3.46875q1.78125 -1.9375 2.34375 -2.890625q0.5625 -0.953125 0.5625 -2.109375q0 -1.015625 -0.578125 -1.609375q-0.578125 -0.609375 -1.5625 -0.609375q-1.453125 0 -2.890625 1.25l-0.9375 -1.078125q1.75 -1.578125 3.84375 -1.578125q1.765625 0 2.78125 0.96875q1.03125 0.96875 1.03125 2.59375q0 1.09375 -0.546875 2.234375q-0.53125 1.125 -2.640625 3.40625l-2.5625 2.734375l0 0.0625l6.265625 0l0 1.515625zm7.0393066 0.1875q-2.09375 0 -3.171875 -1.765625q-1.0625 -1.765625 -1.0625 -5.09375q0 -6.859375 4.234375 -6.859375q2.109375 0 3.1875 1.765625q1.078125 1.765625 1.078125 5.09375q0 6.859375 -4.265625 6.859375zm0 -1.421875q1.34375 0 1.96875 -1.28125q0.625 -1.28125 0.625 -4.15625q0 -2.875 -0.625 -4.15625q-0.625 -1.28125 -1.96875 -1.28125q-1.328125 0 -1.9375 1.28125q-0.609375 1.265625 -0.609375 4.15625q0 2.890625 0.609375 4.171875q0.609375 1.265625 1.9375 1.265625zm11.211182 -9.015625q1.15625 0 1.15625 1.265625q0 1.265625 -1.15625 1.265625q-1.15625 0 -1.15625 -1.265625q0 -1.265625 1.15625 -1.265625zm0 7.96875q1.15625 0 1.15625 1.265625q0 1.28125 -1.15625 1.28125q-1.15625 0 -1.15625 -1.28125q0 -1.265625 1.15625 -1.265625zm15.336182 2.28125l-8.296875 0l0 -1.421875l3.1875 -3.46875q1.78125 -1.9375 2.34375 -2.890625q0.5625 -0.953125 0.5625 -2.109375q0 -1.015625 -0.578125 -1.609375q-0.578125 -0.609375 -1.5625 -0.609375q-1.453125 0 -2.890625 1.25l-0.9375 -1.078125q1.75 -1.578125 3.84375 -1.578125q1.765625 0 2.78125 0.96875q1.03125 0.96875 1.03125 2.59375q0 1.09375 -0.546875 2.234375q-0.53125 1.125 -2.640625 3.40625l-2.5625 2.734375l0 0.0625l6.265625 0l0 1.515625zm3.0236816 -0.53125l0 -1.578125q1.3125 0.875 3.28125 0.875q3.0625 0 3.0625 -2.859375q0 -2.671875 -3.140625 -2.671875q-0.796875 0 -2.09375 0.234375l-0.828125 -0.515625l0.5 -6.265625l6.296875 0l0 1.5l-4.84375 0l-0.359375 3.828125q0.96875 -0.1875 1.90625 -0.1875q1.90625 0 3.078125 1.046875q1.1875 1.046875 1.1875 2.859375q0 2.125 -1.265625 3.296875q-1.25 1.15625 -3.53125 1.15625q-2.046875 0 -3.25 -0.71875zm15.226807 -9.71875q1.15625 0 1.15625 1.265625q0 1.265625 -1.15625 1.265625q-1.15625 0 -1.15625 -1.265625q0 -1.265625 1.15625 -1.265625zm0 7.96875q1.15625 0 1.15625 1.265625q0 1.28125 -1.15625 1.28125q-1.15625 0 -1.15625 -1.28125q0 -1.265625 1.15625 -1.265625zm11.929932 -4.734375l0 0.0625q3.28125 0.421875 3.28125 3.15625q0 1.859375 -1.265625 2.921875q-1.25 1.0625 -3.625 1.0625q-2.203125 0 -3.53125 -0.71875l0 -1.5625q1.6875 0.875 3.5 0.875q3.21875 0 3.21875 -2.625q0 -2.34375 -3.46875 -2.34375l-1.21875 0l0 -1.375l1.21875 0q1.453125 0 2.25 -0.6875q0.8125 -0.703125 0.8125 -1.84375q0 -0.921875 -0.625 -1.46875q-0.609375 -0.546875 -1.65625 -0.546875q-1.625 0 -3.125 1.109375l-0.84375 -1.140625q1.703125 -1.375 3.96875 -1.375q1.875 0 2.921875 0.90625q1.0625 0.90625 1.0625 2.40625q0 1.25 -0.75 2.109375q-0.75 0.84375 -2.125 1.078125zm6.4299316 6.484375l0 -1.578125q1.3125 0.875 3.28125 0.875q3.0625 0 3.0625 -2.859375q0 -2.671875 -3.140625 -2.671875q-0.796875 0 -2.09375 0.234375l-0.828125 -0.515625l0.5 -6.265625l6.296875 0l0 1.5l-4.84375 0l-0.359375 3.828125q0.96875 -0.1875 1.90625 -0.1875q1.90625 0 3.078125 1.046875q1.1875 1.046875 1.1875 2.859375q0 2.125 -1.265625 3.296875q-1.25 1.15625 -3.53125 1.15625q-2.046875 0 -3.25 -0.71875zm15.226807 -2.203125q1.390625 0 1.390625 1.5q0 1.515625 -1.390625 1.515625q-1.375 0 -1.375 -1.515625q0 -1.5 1.375 -1.5zm8.008057 2.75l0 -1.421875q0.609375 0.234375 1.515625 0.234375q2.03125 0 3.046875 -1.28125q1.03125 -1.296875 1.125 -4.078125l-0.109375 0q-0.875 1.546875 -2.796875 1.546875q-1.765625 0 -2.78125 -1.0625q-1.0 -1.078125 -1.0 -2.984375q0 -2.078125 1.09375 -3.28125q1.09375 -1.203125 2.953125 -1.203125q2.0 0 3.171875 1.5625q1.171875 1.5625 1.171875 4.3125q0 7.828125 -5.828125 7.828125q-0.953125 0 -1.5625 -0.171875zm0.59375 -9.046875q0 1.328125 0.625 2.046875q0.625 0.703125 1.78125 0.703125q1.15625 0 1.9375 -0.734375q0.796875 -0.75 0.796875 -1.6875q0 -1.375 -0.734375 -2.390625q-0.734375 -1.015625 -1.9375 -1.015625q-1.171875 0 -1.828125 0.796875q-0.640625 0.796875 -0.640625 2.28125zm16.992432 -4.3125l0 1.421875q-0.65625 -0.21875 -1.515625 -0.21875q-2.046875 0 -3.078125 1.28125q-1.015625 1.28125 -1.109375 4.078125l0.109375 0q0.875 -1.546875 2.796875 -1.546875q1.78125 0 2.78125 1.078125q1.015625 1.078125 1.015625 2.953125q0 2.078125 -1.109375 3.28125q-1.09375 1.203125 -2.9375 1.203125q-1.984375 0 -3.171875 -1.53125q-1.171875 -1.546875 -1.171875 -4.34375q0 -7.828125 5.8125 -7.828125q0.953125 0 1.578125 0.171875zm-0.609375 9.046875q0 -1.3125 -0.625 -2.015625q-0.625 -0.71875 -1.78125 -0.71875q-1.15625 0 -1.9375 0.734375q-0.78125 0.734375 -0.78125 1.6875q0 1.390625 0.734375 2.390625q0.734375 1.0 1.9375 1.0q1.15625 0 1.796875 -0.796875q0.65625 -0.796875 0.65625 -2.28125zm9.961182 -2.75q2.828125 1.453125 2.828125 3.578125q0 1.640625 -1.15625 2.65625q-1.140625 1.0 -3.03125 1.0q-1.96875 0 -3.078125 -0.9375q-1.09375 -0.953125 -1.09375 -2.640625q0 -2.34375 2.5625 -3.59375q-2.140625 -1.328125 -2.140625 -3.359375q0 -1.46875 1.0625 -2.328125q1.0625 -0.859375 2.6875 -0.859375q1.671875 0 2.703125 0.875q1.046875 0.859375 1.046875 2.328125q0 2.109375 -2.390625 3.28125zm-1.34375 -0.671875q2.109375 -0.9375 2.109375 -2.53125q0 -0.921875 -0.578125 -1.40625q-0.5625 -0.484375 -1.5625 -0.484375q-0.96875 0 -1.546875 0.484375q-0.5625 0.484375 -0.5625 1.40625q0 0.8125 0.453125 1.390625q0.453125 0.5625 1.6875 1.140625zm-0.25 1.375q-2.3125 1.109375 -2.3125 2.96875q0 2.1875 2.515625 2.1875q1.234375 0 1.90625 -0.59375q0.6875 -0.609375 0.6875 -1.671875q0 -0.8125 -0.578125 -1.4375q-0.578125 -0.640625 -1.953125 -1.328125l-0.265625 -0.125zm10.586182 -6.96875l-0.375 4.796875l-1.40625 0l-0.375 -4.796875l2.15625 0zm3.84375 0l-0.375 4.796875l-1.40625 0l-0.375 -4.796875l2.15625 0zm9.617432 10.921875l0.140625 0.21875q-0.515625 2.046875 -1.765625 4.796875l-1.375 0q0.6875 -2.9375 1.0 -5.015625l2.0 0zm9.773682 -0.34375q1.390625 0 1.390625 1.5q0 1.515625 -1.390625 1.515625q-1.375 0 -1.375 -1.515625q0 -1.5 1.375 -1.5zm11.195557 0q1.390625 0 1.390625 1.5q0 1.515625 -1.390625 1.515625q-1.375 0 -1.375 -1.515625q0 -1.5 1.375 -1.5zm11.195557 0q1.390625 0 1.390625 1.5q0 1.515625 -1.390625 1.515625q-1.375 0 -1.375 -1.515625q0 -1.5 1.375 -1.5zm10.008057 -0.140625q0 -1.875 2.125 -2.25l0 -0.109375q-2.125 -0.375 -2.125 -2.265625l0 -3.015625q0 -0.75 -0.515625 -1.09375q-0.515625 -0.34375 -1.828125 -0.34375l0 -1.359375q4.0 0.046875 4.0 2.65625l0 3.046875q0 1.71875 3.078125 1.71875l0 1.40625q-3.078125 0 -3.078125 1.71875l0 3.046875q0 2.609375 -4.0 2.671875l0 -1.375q1.3125 0 1.828125 -0.34375q0.515625 -0.34375 0.515625 -1.09375l0 -3.015625zm16.617432 5.25l-1.09375 0l0 -15.09375l-1.890625 0l0 15.09375l-1.09375 0l0 -7.46875q-0.5625 0.171875 -1.328125 0.171875q-3.828125 0 -3.828125 -4.5625q0 -2.359375 0.984375 -3.515625q1.0 -1.171875 3.125 -1.171875l5.125 0l0 16.546875zm8.148712 -2.234375q0 0.75 0.515625 1.078125q0.515625 0.34375 1.828125 0.359375l0 1.375q-4.0 -0.0625 -4.0 -2.671875l0 -3.046875q0 -1.71875 -3.078125 -1.71875l0 -1.40625q3.078125 0 3.078125 -1.71875l0 -3.046875q0 -2.609375 4.0 -2.65625l0 1.359375q-1.3125 0.015625 -1.828125 0.359375q-0.515625 0.328125 -0.515625 1.078125l0 3.015625q0 1.890625 -2.109375 2.265625l0 0.109375q2.109375 0.375 2.109375 2.25l0 3.015625zm9.164307 -13.453125l-0.375 4.796875l-1.40625 0l-0.375 -4.796875l2.15625 0zm3.84375 0l-0.375 4.796875l-1.40625 0l-0.375 -4.796875l2.15625 0zm11.898682 11.953125l0 1.25q-1.1875 0.296875 -2.296875 0.296875q-3.296875 0 -3.296875 -3.140625l0 -5.796875l-2.4375 0l0 -0.859375l2.4375 -0.453125l0.703125 -2.609375l0.953125 0l0 2.671875l3.984375 0l0 1.25l-3.984375 0l0 5.796875q0 1.78125 1.75 1.78125q0.84375 0 2.1875 -0.1875zm7.6643066 -12.765625q0.96875 0 0.96875 1.046875q0 0.53125 -0.296875 0.796875q-0.28125 0.25 -0.671875 0.25q-0.96875 0 -0.96875 -1.046875q0 -1.046875 0.96875 -1.046875zm-0.84375 5.4375l-2.4375 -0.1875l0 -1.125l4.109375 0l0 8.703125l3.203125 0.171875l0 1.125l-8.0 0l0 -1.125l3.125 -0.171875l0 -7.390625zm15.179932 8.6875l0 -6.4375q0 -1.328125 -0.25 -1.84375q-0.234375 -0.53125 -0.796875 -0.53125q-0.796875 0 -1.15625 0.765625q-0.359375 0.75 -0.359375 2.53125l0 5.515625l-1.46875 0l0 -6.4375q0 -2.375 -1.140625 -2.375q-0.765625 0 -1.09375 0.734375q-0.328125 0.71875 -0.328125 2.890625l0 5.1875l-1.46875 0l0 -10.0l1.15625 0l0.234375 1.34375l0.09375 0q0.609375 -1.53125 1.828125 -1.53125q1.484375 0 1.953125 1.65625l0.046875 0q0.6875 -1.65625 2.0 -1.65625q1.15625 0 1.6875 0.84375q0.53125 0.84375 0.53125 2.8125l0 6.53125l-1.46875 0zm12.273682 -4.6875l-7.046875 0q0.0625 3.421875 3.125 3.421875q1.78125 0 3.375 -0.6875l0 1.453125q-1.515625 0.6875 -3.3125 0.6875q-2.234375 0 -3.578125 -1.359375q-1.328125 -1.375 -1.328125 -3.75q0 -2.421875 1.234375 -3.84375q1.234375 -1.421875 3.296875 -1.421875q1.921875 0 3.078125 1.21875q1.15625 1.21875 1.15625 3.25l0 1.03125zm-7.015625 -1.34375l5.21875 0q0 -2.78125 -2.46875 -2.78125q-2.515625 0 -2.75 2.78125zm10.070557 5.578125l0 -1.5q1.765625 0.78125 3.375 0.78125q2.5 0 2.5 -1.484375q0 -0.515625 -0.453125 -0.890625q-0.4375 -0.390625 -2.046875 -0.96875q-2.125 -0.796875 -2.671875 -1.453125q-0.546875 -0.65625 -0.546875 -1.5625q0 -1.234375 1.015625 -1.9375q1.015625 -0.71875 2.8125 -0.71875q1.796875 0 3.359375 0.671875l-0.546875 1.359375q-1.65625 -0.65625 -2.90625 -0.65625q-2.15625 0 -2.15625 1.21875q0 0.546875 0.453125 0.890625q0.46875 0.328125 2.125 0.921875q1.921875 0.703125 2.546875 1.390625q0.640625 0.671875 0.640625 1.65625q0 1.359375 -1.0625 2.140625q-1.0625 0.78125 -3.015625 0.78125q-2.265625 0 -3.421875 -0.640625zm18.648682 -0.90625l0 1.25q-1.1875 0.296875 -2.296875 0.296875q-3.296875 0 -3.296875 -3.140625l0 -5.796875l-2.4375 0l0 -0.859375l2.4375 -0.453125l0.703125 -2.609375l0.953125 0l0 2.671875l3.984375 0l0 1.25l-3.984375 0l0 5.796875q0 1.78125 1.75 1.78125q0.84375 0 2.1875 -0.1875zm10.054932 1.359375l-0.34375 -1.390625l-0.0625 0q-0.703125 0.890625 -1.453125 1.234375q-0.734375 0.34375 -1.890625 0.34375q-1.484375 0 -2.328125 -0.78125q-0.84375 -0.796875 -0.84375 -2.203125q0 -3.03125 4.640625 -3.171875l1.84375 -0.0625l0 -0.625q0 -2.15625 -2.21875 -2.15625q-1.34375 0 -2.984375 0.75l-0.578125 -1.25q1.78125 -0.875 3.484375 -0.875q2.078125 0 3.0 0.796875q0.921875 0.796875 0.921875 2.546875l0 6.84375l-1.1875 0zm-0.453125 -4.890625l-1.46875 0.0625q-1.78125 0.078125 -2.53125 0.5625q-0.75 0.484375 -0.75 1.484375q0 1.625 1.8125 1.625q1.34375 0 2.140625 -0.734375q0.796875 -0.75 0.796875 -2.09375l0 -0.90625zm12.398682 4.890625l0 -6.4375q0 -1.328125 -0.25 -1.84375q-0.234375 -0.53125 -0.796875 -0.53125q-0.796875 0 -1.15625 0.765625q-0.359375 0.75 -0.359375 2.53125l0 5.515625l-1.46875 0l0 -6.4375q0 -2.375 -1.140625 -2.375q-0.765625 0 -1.09375 0.734375q-0.328125 0.71875 -0.328125 2.890625l0 5.1875l-1.46875 0l0 -10.0l1.15625 0l0.234375 1.34375l0.09375 0q0.609375 -1.53125 1.828125 -1.53125q1.484375 0 1.953125 1.65625l0.046875 0q0.6875 -1.65625 2.0 -1.65625q1.15625 0 1.6875 0.84375q0.53125 0.84375 0.53125 2.8125l0 6.53125l-1.46875 0zm5.3830566 -1.265625l-0.109375 0q0.109375 1.171875 0.109375 1.46875l0 4.28125l-1.65625 0l0 -14.484375l1.34375 0l0.25 1.34375l0.0625 0q1.0 -1.53125 2.9375 -1.53125q1.828125 0 2.875 1.375q1.046875 1.359375 1.046875 3.796875q0 2.453125 -1.046875 3.828125q-1.046875 1.375 -2.875 1.375q-1.890625 0 -2.9375 -1.453125zm0 -4.125l0 0.375q0 2.0625 0.625 2.953125q0.640625 0.875 2.03125 0.875q2.46875 0 2.46875 -3.84375q0 -3.78125 -2.484375 -3.78125q-1.390625 0 -2.0 0.8125q-0.59375 0.796875 -0.640625 2.609375zm12.851807 -7.921875l-0.375 4.796875l-1.40625 0l-0.375 -4.796875l2.15625 0zm3.84375 0l-0.375 4.796875l-1.40625 0l-0.375 -4.796875l2.15625 0zm8.195557 3.0625q1.15625 0 1.15625 1.265625q0 1.265625 -1.15625 1.265625q-1.15625 0 -1.15625 -1.265625q0 -1.265625 1.15625 -1.265625zm0 7.96875q1.15625 0 1.15625 1.265625q0 1.28125 -1.15625 1.28125q-1.15625 0 -1.15625 -1.28125q0 -1.265625 1.15625 -1.265625zm10.351807 -11.03125l-0.375 4.796875l-1.40625 0l-0.375 -4.796875l2.15625 0zm3.84375 0l-0.375 4.796875l-1.40625 0l-0.375 -4.796875l2.15625 0zm12.336182 13.3125l-8.296875 0l0 -1.421875l3.1875 -3.46875q1.78125 -1.9375 2.34375 -2.890625q0.5625 -0.953125 0.5625 -2.109375q0 -1.015625 -0.578125 -1.609375q-0.578125 -0.609375 -1.5625 -0.609375q-1.453125 0 -2.890625 1.25l-0.9375 -1.078125q1.75 -1.578125 3.84375 -1.578125q1.765625 0 2.78125 0.96875q1.03125 0.96875 1.03125 2.59375q0 1.09375 -0.546875 2.234375q-0.53125 1.125 -2.640625 3.40625l-2.5625 2.734375l0 0.0625l6.265625 0l0 1.515625zm7.0393066 0.1875q-2.09375 0 -3.171875 -1.765625q-1.0625 -1.765625 -1.0625 -5.09375q0 -6.859375 4.234375 -6.859375q2.109375 0 3.1875 1.765625q1.078125 1.765625 1.078125 5.09375q0 6.859375 -4.265625 6.859375zm0 -1.421875q1.34375 0 1.96875 -1.28125q0.625 -1.28125 0.625 -4.15625q0 -2.875 -0.625 -4.15625q-0.625 -1.28125 -1.96875 -1.28125q-1.328125 0 -1.9375 1.28125q-0.609375 1.265625 -0.609375 4.15625q0 2.890625 0.609375 4.171875q0.609375 1.265625 1.9375 1.265625zm12.523682 1.234375l-1.609375 0l0 -8.3125q0 -1.109375 0.078125 -3.296875q-0.359375 0.390625 -1.109375 1.03125l-1.328125 1.109375l-0.890625 -1.125l3.484375 -2.71875l1.375 0l0 13.3125zm11.242432 -7.046875q2.828125 1.453125 2.828125 3.578125q0 1.640625 -1.15625 2.65625q-1.140625 1.0 -3.03125 1.0q-1.96875 0 -3.078125 -0.9375q-1.09375 -0.953125 -1.09375 -2.640625q0 -2.34375 2.5625 -3.59375q-2.140625 -1.328125 -2.140625 -3.359375q0 -1.46875 1.0625 -2.328125q1.0625 -0.859375 2.6875 -0.859375q1.671875 0 2.703125 0.875q1.046875 0.859375 1.046875 2.328125q0 2.109375 -2.390625 3.28125zm-1.34375 -0.671875q2.109375 -0.9375 2.109375 -2.53125q0 -0.921875 -0.578125 -1.40625q-0.5625 -0.484375 -1.5625 -0.484375q-0.96875 0 -1.546875 0.484375q-0.5625 0.484375 -0.5625 1.40625q0 0.8125 0.453125 1.390625q0.453125 0.5625 1.6875 1.140625zm-0.25 1.375q-2.3125 1.109375 -2.3125 2.96875q0 2.1875 2.515625 2.1875q1.234375 0 1.90625 -0.59375q0.6875 -0.609375 0.6875 -1.671875q0 -0.8125 -0.578125 -1.4375q-0.578125 -0.640625 -1.953125 -1.328125l-0.265625 -0.125zm8.429932 2.109375l0 -1.53125l6.0 0l0 1.53125l-6.0 0zm14.179932 4.421875q-2.09375 0 -3.171875 -1.765625q-1.0625 -1.765625 -1.0625 -5.09375q0 -6.859375 4.234375 -6.859375q2.109375 0 3.1875 1.765625q1.078125 1.765625 1.078125 5.09375q0 6.859375 -4.265625 6.859375zm0 -1.421875q1.34375 0 1.96875 -1.28125q0.625 -1.28125 0.625 -4.15625q0 -2.875 -0.625 -4.15625q-0.625 -1.28125 -1.96875 -1.28125q-1.328125 0 -1.9375 1.28125q-0.609375 1.265625 -0.609375 4.15625q0 2.890625 0.609375 4.171875q0.609375 1.265625 1.9375 1.265625zm7.1799316 0.703125l0 -1.578125q1.3125 0.875 3.28125 0.875q3.0625 0 3.0625 -2.859375q0 -2.671875 -3.140625 -2.671875q-0.796875 0 -2.09375 0.234375l-0.828125 -0.515625l0.5 -6.265625l6.296875 0l0 1.5l-4.84375 0l-0.359375 3.828125q0.96875 -0.1875 1.90625 -0.1875q1.90625 0 3.078125 1.046875q1.1875 1.046875 1.1875 2.859375q0 2.125 -1.265625 3.296875q-1.25 1.15625 -3.53125 1.15625q-2.046875 0 -3.25 -0.71875zm12.226807 -3.703125l0 -1.53125l6.0 0l0 1.53125l-6.0 0zm18.336182 4.234375l-8.296875 0l0 -1.421875l3.1875 -3.46875q1.78125 -1.9375 2.34375 -2.890625q0.5625 -0.953125 0.5625 -2.109375q0 -1.015625 -0.578125 -1.609375q-0.578125 -0.609375 -1.5625 -0.609375q-1.453125 0 -2.890625 1.25l-0.9375 -1.078125q1.75 -1.578125 3.84375 -1.578125q1.765625 0 2.78125 0.96875q1.03125 0.96875 1.03125 2.59375q0 1.09375 -0.546875 2.234375q-0.53125 1.125 -2.640625 3.40625l-2.5625 2.734375l0 0.0625l6.265625 0l0 1.515625zm11.195557 0l-8.296875 0l0 -1.421875l3.1875 -3.46875q1.78125 -1.9375 2.34375 -2.890625q0.5625 -0.953125 0.5625 -2.109375q0 -1.015625 -0.578125 -1.609375q-0.578125 -0.609375 -1.5625 -0.609375q-1.453125 0 -2.890625 1.25l-0.9375 -1.078125q1.75 -1.578125 3.84375 -1.578125q1.765625 0 2.78125 0.96875q1.03125 0.96875 1.03125 2.59375q0 1.09375 -0.546875 2.234375q-0.53125 1.125 -2.640625 3.40625l-2.5625 2.734375l0 0.0625l6.265625 0l0 1.515625zm22.391113 0l-8.296875 0l0 -1.421875l3.1875 -3.46875q1.78125 -1.9375 2.34375 -2.890625q0.5625 -0.953125 0.5625 -2.109375q0 -1.015625 -0.578125 -1.609375q-0.578125 -0.609375 -1.5625 -0.609375q-1.453125 0 -2.890625 1.25l-0.9375 -1.078125q1.75 -1.578125 3.84375 -1.578125q1.765625 0 2.78125 0.96875q1.03125 0.96875 1.03125 2.59375q0 1.09375 -0.546875 2.234375q-0.53125 1.125 -2.640625 3.40625l-2.5625 2.734375l0 0.0625l6.265625 0l0 1.515625zm7.0393066 0.1875q-2.09375 0 -3.171875 -1.765625q-1.0625 -1.765625 -1.0625 -5.09375q0 -6.859375 4.234375 -6.859375q2.109375 0 3.1875 1.765625q1.078125 1.765625 1.078125 5.09375q0 6.859375 -4.265625 6.859375zm0 -1.421875q1.34375 0 1.96875 -1.28125q0.625 -1.28125 0.625 -4.15625q0 -2.875 -0.625 -4.15625q-0.625 -1.28125 -1.96875 -1.28125q-1.328125 0 -1.9375 1.28125q-0.609375 1.265625 -0.609375 4.15625q0 2.890625 0.609375 4.171875q0.609375 1.265625 1.9375 1.265625zm11.211182 -9.015625q1.15625 0 1.15625 1.265625q0 1.265625 -1.15625 1.265625q-1.15625 0 -1.15625 -1.265625q0 -1.265625 1.15625 -1.265625zm0 7.96875q1.15625 0 1.15625 1.265625q0 1.28125 -1.15625 1.28125q-1.15625 0 -1.15625 -1.28125q0 -1.265625 1.15625 -1.265625zm15.336182 2.28125l-8.296875 0l0 -1.421875l3.1875 -3.46875q1.78125 -1.9375 2.34375 -2.890625q0.5625 -0.953125 0.5625 -2.109375q0 -1.015625 -0.578125 -1.609375q-0.578125 -0.609375 -1.5625 -0.609375q-1.453125 0 -2.890625 1.25l-0.9375 -1.078125q1.75 -1.578125 3.84375 -1.578125q1.765625 0 2.78125 0.96875q1.03125 0.96875 1.03125 2.59375q0 1.09375 -0.546875 2.234375q-0.53125 1.125 -2.640625 3.40625l-2.5625 2.734375l0 0.0625l6.265625 0l0 1.515625zm3.0236816 -0.53125l0 -1.578125q1.3125 0.875 3.28125 0.875q3.0625 0 3.0625 -2.859375q0 -2.671875 -3.140625 -2.671875q-0.796875 0 -2.09375 0.234375l-0.828125 -0.515625l0.5 -6.265625l6.296875 0l0 1.5l-4.84375 0l-0.359375 3.828125q0.96875 -0.1875 1.90625 -0.1875q1.90625 0 3.078125 1.046875q1.1875 1.046875 1.1875 2.859375q0 2.125 -1.265625 3.296875q-1.25 1.15625 -3.53125 1.15625q-2.046875 0 -3.25 -0.71875zm15.226807 -9.71875q1.15625 0 1.15625 1.265625q0 1.265625 -1.15625 1.265625q-1.15625 0 -1.15625 -1.265625q0 -1.265625 1.15625 -1.265625zm0 7.96875q1.15625 0 1.15625 1.265625q0 1.28125 -1.15625 1.28125q-1.15625 0 -1.15625 -1.28125q0 -1.265625 1.15625 -1.265625zm15.851807 -0.703125l-1.9375 0l0 2.984375l-1.59375 0l0 -2.984375l-6.15625 0l0 -1.453125l6.046875 -8.953125l1.703125 0l0 8.890625l1.9375 0l0 1.515625zm-3.53125 -1.515625l0 -3.25q0 -1.59375 0.109375 -3.921875l-0.078125 0q-0.328125 0.921875 -0.8125 1.640625l-3.75 5.53125l4.53125 0zm14.211182 4.5l-8.296875 0l0 -1.421875l3.1875 -3.46875q1.78125 -1.9375 2.34375 -2.890625q0.5625 -0.953125 0.5625 -2.109375q0 -1.015625 -0.578125 -1.609375q-0.578125 -0.609375 -1.5625 -0.609375q-1.453125 0 -2.890625 1.25l-0.9375 -1.078125q1.75 -1.578125 3.84375 -1.578125q1.765625 0 2.78125 0.96875q1.03125 0.96875 1.03125 2.59375q0 1.09375 -0.546875 2.234375q-0.53125 1.125 -2.640625 3.40625l-2.5625 2.734375l0 0.0625l6.265625 0l0 1.515625zm7.0549316 -2.734375q1.390625 0 1.390625 1.5q0 1.515625 -1.390625 1.515625q-1.375 0 -1.375 -1.515625q0 -1.5 1.375 -1.5zm11.179932 2.921875q-2.09375 0 -3.171875 -1.765625q-1.0625 -1.765625 -1.0625 -5.09375q0 -6.859375 4.234375 -6.859375q2.109375 0 3.1875 1.765625q1.078125 1.765625 1.078125 5.09375q0 6.859375 -4.265625 6.859375zm0 -1.421875q1.34375 0 1.96875 -1.28125q0.625 -1.28125 0.625 -4.15625q0 -2.875 -0.625 -4.15625q-0.625 -1.28125 -1.96875 -1.28125q-1.328125 0 -1.9375 1.28125q-0.609375 1.265625 -0.609375 4.15625q0 2.890625 0.609375 4.171875q0.609375 1.265625 1.9375 1.265625zm11.195557 1.421875q-2.09375 0 -3.171875 -1.765625q-1.0625 -1.765625 -1.0625 -5.09375q0 -6.859375 4.234375 -6.859375q2.109375 0 3.1875 1.765625q1.078125 1.765625 1.078125 5.09375q0 6.859375 -4.265625 6.859375zm0 -1.421875q1.34375 0 1.96875 -1.28125q0.625 -1.28125 0.625 -4.15625q0 -2.875 -0.625 -4.15625q-0.625 -1.28125 -1.96875 -1.28125q-1.328125 0 -1.9375 1.28125q-0.609375 1.265625 -0.609375 4.15625q0 2.890625 0.609375 4.171875q0.609375 1.265625 1.9375 1.265625zm7.1799316 0.703125l0 -1.578125q1.3125 0.875 3.28125 0.875q3.0625 0 3.0625 -2.859375q0 -2.671875 -3.140625 -2.671875q-0.796875 0 -2.09375 0.234375l-0.828125 -0.515625l0.5 -6.265625l6.296875 0l0 1.5l-4.84375 0l-0.359375 3.828125q0.96875 -0.1875 1.90625 -0.1875q1.90625 0 3.078125 1.046875q1.1875 1.046875 1.1875 2.859375q0 2.125 -1.265625 3.296875q-1.25 1.15625 -3.53125 1.15625q-2.046875 0 -3.25 -0.71875zm14.664307 -12.78125l0.140625 0.1875q-0.5 1.953125 -1.609375 4.375l-1.4375 0q0.59375 -2.421875 0.921875 -4.5625l1.984375 0zm3.890625 0l0.125 0.1875q-0.5 1.953125 -1.609375 4.375l-1.4375 0q0.59375 -2.421875 0.921875 -4.5625l2.0 0zm9.289307 10.921875l0.140625 0.21875q-0.515625 2.046875 -1.765625 4.796875l-1.375 0q0.6875 -2.9375 1.0 -5.015625l2.0 0zm9.773682 -0.34375q1.390625 0 1.390625 1.5q0 1.515625 -1.390625 1.515625q-1.375 0 -1.375 -1.515625q0 -1.5 1.375 -1.5zm11.195557 0q1.390625 0 1.390625 1.5q0 1.515625 -1.390625 1.515625q-1.375 0 -1.375 -1.515625q0 -1.5 1.375 -1.5zm11.195557 0q1.390625 0 1.390625 1.5q0 1.515625 -1.390625 1.515625q-1.375 0 -1.375 -1.515625q0 -1.5 1.375 -1.5zm10.008057 -0.140625q0 -1.875 2.125 -2.25l0 -0.109375q-2.125 -0.375 -2.125 -2.265625l0 -3.015625q0 -0.75 -0.515625 -1.09375q-0.515625 -0.34375 -1.828125 -0.34375l0 -1.359375q4.0 0.046875 4.0 2.65625l0 3.046875q0 1.71875 3.078125 1.71875l0 1.40625q-3.078125 0 -3.078125 1.71875l0 3.046875q0 2.609375 -4.0 2.671875l0 -1.375q1.3125 0 1.828125 -0.34375q0.515625 -0.34375 0.515625 -1.09375l0 -3.015625zm16.617432 5.25l-1.09375 0l0 -15.09375l-1.890625 0l0 15.09375l-1.09375 0l0 -7.46875q-0.5625 0.171875 -1.328125 0.171875q-3.828125 0 -3.828125 -4.5625q0 -2.359375 0.984375 -3.515625q1.0 -1.171875 3.125 -1.171875l5.125 0l0 16.546875z" fill-rule="nonzero"/><path fill="#000000" fill-opacity="0.0" d="m20.15589 144.0l0 -133.00787" fill-rule="evenodd"/><path stroke="#000000" stroke-width="3.0" stroke-linejoin="round" stroke-linecap="butt" d="m20.15589 144.0l0 -133.00787" fill-rule="evenodd"/><path fill="#000000" fill-opacity="0.0" d="m513.20844 144.0l0 -133.00787" fill-rule="evenodd"/><path stroke="#000000" stroke-width="3.0" stroke-linejoin="round" stroke-linecap="butt" d="m513.20844 144.0l0 -133.00787" fill-rule="evenodd"/><path fill="#000000" fill-opacity="0.0" d="m1008.1268 144.0l0 -133.00787" fill-rule="evenodd"/><path stroke="#000000" stroke-width="3.0" stroke-linejoin="round" stroke-linecap="butt" d="m1008.1268 144.0l0 -133.00787" fill-rule="evenodd"/><path fill="#000000" fill-opacity="0.0" d="m20.178478 141.0c0 -6.627411 7.163372 -12.0 15.99984 -12.0l44.362522 0c8.836472 0 15.99984 -5.3725815 15.99984 -12.0l0 0c0 6.6274185 7.163376 12.0 15.99984 12.0l44.362526 0l0 0c8.836472 0 15.999847 5.372589 15.999847 12.0z" fill-rule="evenodd"/><path fill="#000000" fill-opacity="0.0" d="m20.178478 141.0c0 -6.627411 7.163372 -12.0 15.99984 -12.0l44.362522 0c8.836472 0 15.99984 -5.3725815 15.99984 -12.0l0 0c0 6.6274185 7.163376 12.0 15.99984 12.0l44.362526 0l0 0c8.836472 0 15.999847 5.372589 15.999847 12.0" fill-rule="evenodd"/><path stroke="#999999" stroke-width="2.0" stroke-linejoin="round" stroke-linecap="butt" d="m20.178478 141.0c0 -6.627411 7.163372 -12.0 15.99984 -12.0l44.362522 0c8.836472 0 15.99984 -5.3725815 15.99984 -12.0l0 0c0 6.6274185 7.163376 12.0 15.99984 12.0l44.362526 0l0 0c8.836472 0 15.999847 5.372589 15.999847 12.0" fill-rule="evenodd"/><path fill="#000000" fill-opacity="0.0" d="m23.673422 43.385826l145.73228 0l0 68.220474l-145.73228 0z" fill-rule="evenodd"/><path fill="#000000" d="m54.012733 76.5263l0 -13.359375l9.015625 0l0 1.578125l-7.25 0l0 4.140625l6.265625 0l0 1.578125l-6.265625 0l0 6.0625l-1.765625 0zm11.099106 -11.46875l0 -1.890625l1.640625 0l0 1.890625l-1.640625 0zm0 11.46875l0 -9.671875l1.640625 0l0 9.671875l-1.640625 0zm4.129196 0l0 -9.671875l1.46875 0l0 1.46875q0.5625 -1.03125 1.03125 -1.359375q0.484375 -0.328125 1.0625 -0.328125q0.828125 0 1.6875 0.53125l-0.5625 1.515625q-0.609375 -0.359375 -1.203125 -0.359375q-0.546875 0 -0.96875 0.328125q-0.421875 0.328125 -0.609375 0.890625q-0.28125 0.875 -0.28125 1.921875l0 5.0625l-1.625 0zm5.572052 -2.890625l1.625 -0.25q0.125 0.96875 0.75 1.5q0.625 0.515625 1.75 0.515625q1.125 0 1.671875 -0.453125q0.546875 -0.46875 0.546875 -1.09375q0 -0.546875 -0.484375 -0.875q-0.328125 -0.21875 -1.671875 -0.546875q-1.8125 -0.46875 -2.515625 -0.796875q-0.6875 -0.328125 -1.046875 -0.90625q-0.359375 -0.59375 -0.359375 -1.3125q0 -0.640625 0.296875 -1.1875q0.296875 -0.5625 0.8125 -0.921875q0.375 -0.28125 1.03125 -0.46875q0.671875 -0.203125 1.421875 -0.203125q1.140625 0 2.0 0.328125q0.859375 0.328125 1.265625 0.890625q0.421875 0.5625 0.578125 1.5l-1.609375 0.21875q-0.109375 -0.75 -0.640625 -1.171875q-0.515625 -0.421875 -1.46875 -0.421875q-1.140625 0 -1.625 0.375q-0.46875 0.375 -0.46875 0.875q0 0.3125 0.1875 0.578125q0.203125 0.265625 0.640625 0.4375q0.234375 0.09375 1.4375 0.421875q1.75 0.453125 2.4375 0.75q0.6875 0.296875 1.078125 0.859375q0.390625 0.5625 0.390625 1.40625q0 0.828125 -0.484375 1.546875q-0.46875 0.71875 -1.375 1.125q-0.90625 0.390625 -2.046875 0.390625q-1.875 0 -2.875 -0.78125q-0.984375 -0.78125 -1.25 -2.328125zm13.5625 1.421875l0.234375 1.453125q-0.6875 0.140625 -1.234375 0.140625q-0.890625 0 -1.390625 -0.28125q-0.484375 -0.28125 -0.6875 -0.734375q-0.203125 -0.46875 -0.203125 -1.9375l0 -5.578125l-1.203125 0l0 -1.265625l1.203125 0l0 -2.390625l1.625 -0.984375l0 3.375l1.65625 0l0 1.265625l-1.65625 0l0 5.671875q0 0.6875 0.078125 0.890625q0.09375 0.203125 0.28125 0.328125q0.203125 0.109375 0.578125 0.109375q0.265625 0 0.71875 -0.0625zm6.7728577 1.46875l0 -9.671875l1.46875 0l0 1.46875q0.5625 -1.03125 1.03125 -1.359375q0.484375 -0.328125 1.0625 -0.328125q0.828125 0 1.6875 0.53125l-0.5625 1.515625q-0.609375 -0.359375 -1.203125 -0.359375q-0.546875 0 -0.96875 0.328125q-0.421875 0.328125 -0.609375 0.890625q-0.28125 0.875 -0.28125 1.921875l0 5.0625l-1.625 0zm12.853302 -3.109375l1.6875 0.203125q-0.40625 1.484375 -1.484375 2.3125q-1.078125 0.8125 -2.765625 0.8125q-2.125 0 -3.375 -1.296875q-1.234375 -1.3125 -1.234375 -3.671875q0 -2.453125 1.25 -3.796875q1.265625 -1.34375 3.265625 -1.34375q1.9375 0 3.15625 1.328125q1.234375 1.3125 1.234375 3.703125q0 0.15625 0 0.4375l-7.21875 0q0.09375 1.59375 0.90625 2.453125q0.8125 0.84375 2.015625 0.84375q0.90625 0 1.546875 -0.46875q0.640625 -0.484375 1.015625 -1.515625zm-5.390625 -2.65625l5.40625 0q-0.109375 -1.21875 -0.625 -1.828125q-0.78125 -0.953125 -2.03125 -0.953125q-1.125 0 -1.90625 0.765625q-0.765625 0.75 -0.84375 2.015625zm8.828842 6.5625l1.59375 0.234375q0.109375 0.75 0.5625 1.078125q0.609375 0.453125 1.671875 0.453125q1.140625 0 1.75 -0.453125q0.625 -0.453125 0.84375 -1.265625q0.125 -0.5 0.109375 -2.109375q-1.0625 1.265625 -2.671875 1.265625q-2.0 0 -3.09375 -1.4375q-1.09375 -1.4375 -1.09375 -3.453125q0 -1.390625 0.5 -2.5625q0.515625 -1.171875 1.453125 -1.796875q0.953125 -0.640625 2.25 -0.640625q1.703125 0 2.8125 1.375l0 -1.15625l1.515625 0l0 8.359375q0 2.265625 -0.46875 3.203125q-0.453125 0.9375 -1.453125 1.484375q-0.984375 0.546875 -2.453125 0.546875q-1.71875 0 -2.796875 -0.78125q-1.0625 -0.765625 -1.03125 -2.34375zm1.359375 -5.8125q0 1.90625 0.75 2.78125q0.765625 0.875 1.90625 0.875q1.125 0 1.890625 -0.859375q0.765625 -0.875 0.765625 -2.734375q0 -1.78125 -0.796875 -2.671875q-0.78125 -0.90625 -1.890625 -0.90625q-1.09375 0 -1.859375 0.890625q-0.765625 0.875 -0.765625 2.625zm15.953835 1.90625l1.6875 0.203125q-0.40625 1.484375 -1.484375 2.3125q-1.0781174 0.8125 -2.7656174 0.8125q-2.125 0 -3.375 -1.296875q-1.234375 -1.3125 -1.234375 -3.671875q0 -2.453125 1.25 -3.796875q1.265625 -1.34375 3.265625 -1.34375q1.9374924 0 3.1562424 1.328125q1.234375 1.3125 1.234375 3.703125q0 0.15625 0 0.4375l-7.2187424 0q0.09375 1.59375 0.90625 2.453125q0.8125 0.84375 2.015625 0.84375q0.90625 0 1.546875 -0.46875q0.6406174 -0.484375 1.0156174 -1.515625zm-5.3906174 -2.65625l5.4062424 0q-0.109375 -1.21875 -0.625 -1.828125q-0.7812424 -0.953125 -2.0312424 -0.953125q-1.125 0 -1.90625 0.765625q-0.765625 0.75 -0.84375 2.015625zm8.047585 5.765625l3.53125 -5.03125l-3.265625 -4.640625l2.046875 0l1.484375 2.265625q0.421875 0.640625 0.671875 1.078125q0.40625 -0.59375 0.734375 -1.0625l1.640625 -2.28125l1.953125 0l-3.34375 4.546875l3.59375 5.125l-2.015625 0l-1.984375 -3.0l-0.515625 -0.8125l-2.546875 3.8125l-1.984375 0z" fill-rule="nonzero"/><path fill="#000000" d="m72.37211 98.5263l0 -9.671875l1.46875 0l0 1.359375q0.453125 -0.71875 1.203125 -1.140625q0.765625 -0.4375 1.71875 -0.4375q1.078125 0 1.765625 0.453125q0.6875 0.4375 0.96875 1.234375q1.15625 -1.6875 2.984375 -1.6875q1.453125 0 2.21875 0.796875q0.78125 0.796875 0.78125 2.453125l0 6.640625l-1.640625 0l0 -6.09375q0 -0.984375 -0.15625 -1.40625q-0.15625 -0.4375 -0.578125 -0.703125q-0.421875 -0.265625 -0.984375 -0.265625q-1.015625 0 -1.6875 0.6875q-0.671875 0.671875 -0.671875 2.15625l0 5.625l-1.640625 0l0 -6.28125q0 -1.09375 -0.40625 -1.640625q-0.40625 -0.546875 -1.3125 -0.546875q-0.6875 0 -1.28125 0.359375q-0.59375 0.359375 -0.859375 1.0625q-0.25 0.703125 -0.25 2.03125l0 5.015625l-1.640625 0zm21.853302 -1.1875q-0.921875 0.765625 -1.765625 1.09375q-0.828125 0.3125 -1.796875 0.3125q-1.59375 0 -2.453125 -0.78125q-0.859375 -0.78125 -0.859375 -1.984375q0 -0.71875 0.328125 -1.296875q0.328125 -0.59375 0.84375 -0.9375q0.53125 -0.359375 1.1875 -0.546875q0.46875 -0.125 1.453125 -0.25q1.984375 -0.234375 2.921875 -0.5625q0.015625 -0.34375 0.015625 -0.421875q0 -1.0 -0.46875 -1.421875q-0.625 -0.546875 -1.875 -0.546875q-1.15625 0 -1.703125 0.40625q-0.546875 0.40625 -0.8125 1.421875l-1.609375 -0.21875q0.21875 -1.015625 0.71875 -1.640625q0.5 -0.640625 1.453125 -0.984375q0.953125 -0.34375 2.1875 -0.34375q1.25 0 2.015625 0.296875q0.78125 0.28125 1.140625 0.734375q0.375 0.4375 0.515625 1.109375q0.078125 0.421875 0.078125 1.515625l0 2.1875q0 2.28125 0.109375 2.890625q0.109375 0.59375 0.40625 1.15625l-1.703125 0q-0.265625 -0.515625 -0.328125 -1.1875zm-0.140625 -3.671875q-0.890625 0.375 -2.671875 0.625q-1.015625 0.140625 -1.4375 0.328125q-0.421875 0.1875 -0.65625 0.53125q-0.21875 0.34375 -0.21875 0.78125q0 0.65625 0.5 1.09375q0.5 0.4375 1.453125 0.4375q0.9375 0 1.671875 -0.40625q0.75 -0.421875 1.09375 -1.140625q0.265625 -0.5625 0.265625 -1.640625l0 -0.609375zm7.781967 3.390625l0.234375 1.453125q-0.6875 0.140625 -1.234375 0.140625q-0.890625 0 -1.390625 -0.28125q-0.484375 -0.28125 -0.6875 -0.734375q-0.203125 -0.46875 -0.203125 -1.9375l0 -5.578125l-1.203125 0l0 -1.265625l1.203125 0l0 -2.390625l1.625 -0.984375l0 3.375l1.65625 0l0 1.265625l-1.65625 0l0 5.671875q0 0.6875 0.078125 0.890625q0.09375 0.203125 0.28125 0.328125q0.203125 0.109375 0.578125 0.109375q0.265625 0 0.71875 -0.0625zm7.917679 -2.078125l1.609375 0.21875q-0.265625 1.65625 -1.359375 2.609375q-1.078125 0.9375 -2.671875 0.9375q-1.984375 0 -3.1875 -1.296875q-1.203125 -1.296875 -1.203125 -3.71875q0 -1.578125 0.515625 -2.75q0.515625 -1.171875 1.578125 -1.75q1.0625 -0.59375 2.3125 -0.59375q1.578125 0 2.578125 0.796875q1.0 0.796875 1.28125 2.265625l-1.59375 0.234375q-0.234375 -0.96875 -0.8125 -1.453125q-0.578125 -0.5 -1.390625 -0.5q-1.234375 0 -2.015625 0.890625q-0.78125 0.890625 -0.78125 2.8125q0 1.953125 0.75 2.84375q0.75 0.875 1.953125 0.875q0.96875 0 1.609375 -0.59375q0.65625 -0.59375 0.828125 -1.828125zm3.015625 3.546875l0 -13.359375l1.640625 0l0 4.796875q1.140625 -1.328125 2.890625 -1.328125q1.078125 0 1.859375 0.421875q0.796875 0.421875 1.140625 1.171875q0.34375 0.75 0.34375 2.171875l0 6.125l-1.640625 0l0 -6.125q0 -1.234375 -0.53125 -1.796875q-0.53125 -0.5625 -1.515625 -0.5625q-0.71875 0 -1.359375 0.390625q-0.640625 0.375 -0.921875 1.015625q-0.265625 0.640625 -0.265625 1.78125l0 5.296875l-1.640625 0z" fill-rule="nonzero"/><path fill="#000000" fill-opacity="0.0" d="m513.231 141.0c0 -6.627411 7.163391 -12.0 15.999878 -12.0l45.307373 0c8.836487 0 15.999878 -5.3725815 15.999878 -12.0l0 0c0 6.6274185 7.16333 12.0 15.999817 12.0l45.307434 0l0 0c8.836426 0 15.999817 5.372589 15.999817 12.0z" fill-rule="evenodd"/><path fill="#000000" fill-opacity="0.0" d="m513.231 141.0c0 -6.627411 7.163391 -12.0 15.999878 -12.0l45.307373 0c8.836487 0 15.999878 -5.3725815 15.999878 -12.0l0 0c0 6.6274185 7.16333 12.0 15.999817 12.0l45.307434 0l0 0c8.836426 0 15.999817 5.372589 15.999817 12.0" fill-rule="evenodd"/><path stroke="#999999" stroke-width="2.0" stroke-linejoin="round" stroke-linecap="butt" d="m513.231 141.0c0 -6.627411 7.163391 -12.0 15.999878 -12.0l45.307373 0c8.836487 0 15.999878 -5.3725815 15.999878 -12.0l0 0c0 6.6274185 7.16333 12.0 15.999817 12.0l45.307434 0l0 0c8.836426 0 15.999817 5.372589 15.999817 12.0" fill-rule="evenodd"/><path fill="#000000" fill-opacity="0.0" d="m525.86896 43.385826l125.79523 0l0 68.220474l-125.79523 0z" fill-rule="evenodd"/><path fill="#000000" d="m557.973 72.22942l1.65625 -0.140625q0.125 1.0 0.546875 1.640625q0.4375 0.640625 1.34375 1.046875q0.921875 0.390625 2.0625 0.390625q1.0 0 1.78125 -0.296875q0.78125 -0.296875 1.15625 -0.8125q0.375 -0.53125 0.375 -1.15625q0 -0.625 -0.375 -1.09375q-0.359375 -0.46875 -1.1875 -0.796875q-0.546875 -0.203125 -2.390625 -0.640625q-1.828125 -0.453125 -2.5625 -0.84375q-0.96875 -0.5 -1.4375 -1.234375q-0.46875 -0.75 -0.46875 -1.671875q0 -1.0 0.578125 -1.875q0.578125 -0.890625 1.671875 -1.34375q1.109375 -0.453125 2.453125 -0.453125q1.484375 0 2.609375 0.484375q1.140625 0.46875 1.75 1.40625q0.609375 0.921875 0.65625 2.09375l-1.6875 0.125q-0.140625 -1.265625 -0.9375 -1.90625q-0.78125 -0.65625 -2.3125 -0.65625q-1.609375 0 -2.34375 0.59375q-0.734375 0.59375 -0.734375 1.421875q0 0.71875 0.53125 1.171875q0.5 0.46875 2.65625 0.96875q2.15625 0.484375 2.953125 0.84375q1.171875 0.53125 1.71875 1.359375q0.5625 0.828125 0.5625 1.90625q0 1.0625 -0.609375 2.015625q-0.609375 0.9375 -1.75 1.46875q-1.140625 0.515625 -2.578125 0.515625q-1.8125 0 -3.046875 -0.53125q-1.21875 -0.53125 -1.921875 -1.59375q-0.6875 -1.0625 -0.71875 -2.40625zm19.459229 1.1875l1.6875 0.203125q-0.40625 1.484375 -1.484375 2.3125q-1.078125 0.8125 -2.765625 0.8125q-2.125 0 -3.375 -1.296875q-1.234375 -1.3125 -1.234375 -3.671875q0 -2.453125 1.25 -3.796875q1.265625 -1.34375 3.265625 -1.34375q1.9375 0 3.15625 1.328125q1.234375 1.3125 1.234375 3.703125q0 0.15625 0 0.4375l-7.21875 0q0.09375 1.59375 0.90625 2.453125q0.8125 0.84375 2.015625 0.84375q0.90625 0 1.546875 -0.46875q0.640625 -0.484375 1.015625 -1.515625zm-5.390625 -2.65625l5.40625 0q-0.109375 -1.21875 -0.625 -1.828125q-0.78125 -0.953125 -2.03125 -0.953125q-1.125 0 -1.90625 0.765625q-0.765625 0.75 -0.84375 2.015625zm15.453857 2.21875l1.609375 0.21875q-0.265625 1.65625 -1.359375 2.609375q-1.078125 0.9375 -2.671875 0.9375q-1.984375 0 -3.1875 -1.296875q-1.203125 -1.296875 -1.203125 -3.71875q0 -1.578125 0.515625 -2.75q0.515625 -1.171875 1.578125 -1.75q1.0625 -0.59375 2.3125 -0.59375q1.578125 0 2.578125 0.796875q1.0 0.796875 1.28125 2.265625l-1.59375 0.234375q-0.234375 -0.96875 -0.8125 -1.453125q-0.578125 -0.5 -1.390625 -0.5q-1.234375 0 -2.015625 0.890625q-0.78125 0.890625 -0.78125 2.8125q0 1.953125 0.75 2.84375q0.75 0.875 1.953125 0.875q0.96875 0 1.609375 -0.59375q0.65625 -0.59375 0.828125 -1.828125zm2.40625 -1.296875q0 -2.6875 1.484375 -3.96875q1.25 -1.078125 3.046875 -1.078125q2.0 0 3.265625 1.3125q1.265625 1.296875 1.265625 3.609375q0 1.859375 -0.5625 2.9375q-0.5625 1.0625 -1.640625 1.65625q-1.0625 0.59375 -2.328125 0.59375q-2.03125 0 -3.28125 -1.296875q-1.25 -1.3125 -1.25 -3.765625zm1.6875 0q0 1.859375 0.796875 2.796875q0.8125 0.921875 2.046875 0.921875q1.21875 0 2.03125 -0.921875q0.8125 -0.9375 0.8125 -2.84375q0 -1.796875 -0.8125 -2.71875q-0.8125 -0.921875 -2.03125 -0.921875q-1.234375 0 -2.046875 0.921875q-0.796875 0.90625 -0.796875 2.765625zm9.297546 4.84375l0 -9.671875l1.46875 0l0 1.375q1.0625 -1.59375 3.078125 -1.59375q0.875 0 1.609375 0.3125q0.734375 0.3125 1.09375 0.828125q0.375 0.5 0.515625 1.203125q0.09375 0.453125 0.09375 1.59375l0 5.953125l-1.640625 0l0 -5.890625q0 -1.0 -0.203125 -1.484375q-0.1875 -0.5 -0.671875 -0.796875q-0.484375 -0.296875 -1.140625 -0.296875q-1.046875 0 -1.8125 0.671875q-0.75 0.65625 -0.75 2.515625l0 5.28125l-1.640625 0zm16.641357 0l0 -1.21875q-0.90625 1.4375 -2.703125 1.4375q-1.15625 0 -2.125 -0.640625q-0.96875 -0.640625 -1.5 -1.78125q-0.53125 -1.140625 -0.53125 -2.625q0 -1.453125 0.484375 -2.625q0.484375 -1.1875 1.4375 -1.8125q0.96875 -0.625 2.171875 -0.625q0.875 0 1.546875 0.375q0.6875 0.359375 1.109375 0.953125l0 -4.796875l1.640625 0l0 13.359375l-1.53125 0zm-5.171875 -4.828125q0 1.859375 0.78125 2.78125q0.78125 0.921875 1.84375 0.921875q1.078125 0 1.828125 -0.875q0.75 -0.890625 0.75 -2.6875q0 -1.984375 -0.765625 -2.90625q-0.765625 -0.9375 -1.890625 -0.9375q-1.078125 0 -1.8125 0.890625q-0.734375 0.890625 -0.734375 2.8125z" fill-rule="nonzero"/><path fill="#000000" d="m538.65784 98.5263l0 -9.671875l1.46875 0l0 1.46875q0.5625 -1.03125 1.03125 -1.359375q0.484375 -0.328125 1.0625 -0.328125q0.828125 0 1.6875 0.53125l-0.5625 1.515625q-0.609375 -0.359375 -1.203125 -0.359375q-0.546875 0 -0.96875 0.328125q-0.421875 0.328125 -0.609375 0.890625q-0.28125 0.875 -0.28125 1.921875l0 5.0625l-1.625 0zm12.8533325 -3.109375l1.6875 0.203125q-0.40625 1.484375 -1.484375 2.3125q-1.078125 0.8125 -2.765625 0.8125q-2.125 0 -3.375 -1.296875q-1.234375 -1.3125 -1.234375 -3.671875q0 -2.453125 1.25 -3.796875q1.265625 -1.34375 3.265625 -1.34375q1.9375 0 3.15625 1.328125q1.234375 1.3125 1.234375 3.703125q0 0.15625 0 0.4375l-7.21875 0q0.09375 1.59375 0.90625 2.453125q0.8125 0.84375 2.015625 0.84375q0.90625 0 1.546875 -0.46875q0.640625 -0.484375 1.015625 -1.515625zm-5.390625 -2.65625l5.40625 0q-0.109375 -1.21875 -0.625 -1.828125q-0.78125 -0.953125 -2.03125 -0.953125q-1.125 0 -1.90625 0.765625q-0.765625 0.75 -0.84375 2.015625zm8.828857 6.5625l1.59375 0.234375q0.109375 0.75 0.5625 1.078125q0.609375 0.453125 1.671875 0.453125q1.140625 0 1.75 -0.453125q0.625 -0.453125 0.84375 -1.265625q0.125 -0.5 0.109375 -2.109375q-1.0625 1.265625 -2.671875 1.265625q-2.0 0 -3.09375 -1.4375q-1.09375 -1.4375 -1.09375 -3.453125q0 -1.390625 0.5 -2.5625q0.515625 -1.171875 1.453125 -1.796875q0.953125 -0.640625 2.25 -0.640625q1.703125 0 2.8125 1.375l0 -1.15625l1.515625 0l0 8.359375q0 2.265625 -0.46875 3.203125q-0.453125 0.9375 -1.453125 1.484375q-0.984375 0.546875 -2.453125 0.546875q-1.71875 0 -2.796875 -0.78125q-1.0625 -0.765625 -1.03125 -2.34375zm1.359375 -5.8125q0 1.90625 0.75 2.78125q0.765625 0.875 1.90625 0.875q1.125 0 1.890625 -0.859375q0.765625 -0.875 0.765625 -2.734375q0 -1.78125 -0.796875 -2.671875q-0.78125 -0.90625 -1.890625 -0.90625q-1.09375 0 -1.859375 0.890625q-0.765625 0.875 -0.765625 2.625zm15.953796 1.90625l1.6875 0.203125q-0.40625 1.484375 -1.484375 2.3125q-1.078125 0.8125 -2.765625 0.8125q-2.125 0 -3.375 -1.296875q-1.234375 -1.3125 -1.234375 -3.671875q0 -2.453125 1.25 -3.796875q1.265625 -1.34375 3.265625 -1.34375q1.9375 0 3.15625 1.328125q1.234375 1.3125 1.234375 3.703125q0 0.15625 0 0.4375l-7.21875 0q0.09375 1.59375 0.90625 2.453125q0.8125 0.84375 2.015625 0.84375q0.90625 0 1.546875 -0.46875q0.640625 -0.484375 1.015625 -1.515625zm-5.390625 -2.65625l5.40625 0q-0.109375 -1.21875 -0.625 -1.828125q-0.78125 -0.953125 -2.03125 -0.953125q-1.125 0 -1.90625 0.765625q-0.765625 0.75 -0.84375 2.015625zm8.047607 5.765625l3.53125 -5.03125l-3.265625 -4.640625l2.046875 0l1.484375 2.265625q0.421875 0.640625 0.671875 1.078125q0.40625 -0.59375 0.734375 -1.0625l1.640625 -2.28125l1.953125 0l-3.34375 4.546875l3.59375 5.125l-2.015625 0l-1.984375 -3.0l-0.515625 -0.8125l-2.546875 3.8125l-1.984375 0zm15.605164 0l0 -9.671875l1.46875 0l0 1.359375q0.453125 -0.71875 1.203125 -1.140625q0.765625 -0.4375 1.71875 -0.4375q1.078125 0 1.765625 0.453125q0.6875 0.4375 0.96875 1.234375q1.15625 -1.6875 2.984375 -1.6875q1.453125 0 2.21875 0.796875q0.78125 0.796875 0.78125 2.453125l0 6.640625l-1.640625 0l0 -6.09375q0 -0.984375 -0.15625 -1.40625q-0.15625 -0.4375 -0.578125 -0.703125q-0.421875 -0.265625 -0.984375 -0.265625q-1.015625 0 -1.6875 0.6875q-0.671875 0.671875 -0.671875 2.15625l0 5.625l-1.640625 0l0 -6.28125q0 -1.09375 -0.40625 -1.640625q-0.40625 -0.546875 -1.3125 -0.546875q-0.6875 0 -1.28125 0.359375q-0.59375 0.359375 -0.859375 1.0625q-0.25 0.703125 -0.25 2.03125l0 5.015625l-1.640625 0zm21.853333 -1.1875q-0.921875 0.765625 -1.765625 1.09375q-0.828125 0.3125 -1.796875 0.3125q-1.59375 0 -2.453125 -0.78125q-0.859375 -0.78125 -0.859375 -1.984375q0 -0.71875 0.328125 -1.296875q0.328125 -0.59375 0.84375 -0.9375q0.53125 -0.359375 1.1875 -0.546875q0.46875 -0.125 1.453125 -0.25q1.984375 -0.234375 2.921875 -0.5625q0.015625 -0.34375 0.015625 -0.421875q0 -1.0 -0.46875 -1.421875q-0.625 -0.546875 -1.875 -0.546875q-1.15625 0 -1.703125 0.40625q-0.546875 0.40625 -0.8125 1.421875l-1.609375 -0.21875q0.21875 -1.015625 0.71875 -1.640625q0.5 -0.640625 1.453125 -0.984375q0.953125 -0.34375 2.1875 -0.34375q1.25 0 2.015625 0.296875q0.78125 0.28125 1.140625 0.734375q0.375 0.4375 0.515625 1.109375q0.078125 0.421875 0.078125 1.515625l0 2.1875q0 2.28125 0.109375 2.890625q0.109375 0.59375 0.40625 1.15625l-1.703125 0q-0.265625 -0.515625 -0.328125 -1.1875zm-0.140625 -3.671875q-0.890625 0.375 -2.671875 0.625q-1.015625 0.140625 -1.4375 0.328125q-0.421875 0.1875 -0.65625 0.53125q-0.21875 0.34375 -0.21875 0.78125q0 0.65625 0.5 1.09375q0.5 0.4375 1.453125 0.4375q0.9375 0 1.671875 -0.40625q0.75 -0.421875 1.09375 -1.140625q0.265625 -0.5625 0.265625 -1.640625l0 -0.609375zm7.7819824 3.390625l0.234375 1.453125q-0.6875 0.140625 -1.234375 0.140625q-0.890625 0 -1.390625 -0.28125q-0.484375 -0.28125 -0.6875 -0.734375q-0.203125 -0.46875 -0.203125 -1.9375l0 -5.578125l-1.203125 0l0 -1.265625l1.203125 0l0 -2.390625l1.625 -0.984375l0 3.375l1.65625 0l0 1.265625l-1.65625 0l0 5.671875q0 0.6875 0.078125 0.890625q0.09375 0.203125 0.28125 0.328125q0.203125 0.109375 0.578125 0.109375q0.265625 0 0.71875 -0.0625zm7.9176636 -2.078125l1.609375 0.21875q-0.265625 1.65625 -1.359375 2.609375q-1.078125 0.9375 -2.671875 0.9375q-1.984375 0 -3.1875 -1.296875q-1.203125 -1.296875 -1.203125 -3.71875q0 -1.578125 0.515625 -2.75q0.515625 -1.171875 1.578125 -1.75q1.0625 -0.59375 2.3125 -0.59375q1.578125 0 2.578125 0.796875q1.0 0.796875 1.28125 2.265625l-1.59375 0.234375q-0.234375 -0.96875 -0.8125 -1.453125q-0.578125 -0.5 -1.390625 -0.5q-1.234375 0 -2.015625 0.890625q-0.78125 0.890625 -0.78125 2.8125q0 1.953125 0.75 2.84375q0.75 0.875 1.953125 0.875q0.96875 0 1.609375 -0.59375q0.65625 -0.59375 0.828125 -1.828125zm3.015625 3.546875l0 -13.359375l1.640625 0l0 4.796875q1.140625 -1.328125 2.890625 -1.328125q1.078125 0 1.859375 0.421875q0.796875 0.421875 1.140625 1.171875q0.34375 0.75 0.34375 2.171875l0 6.125l-1.640625 0l0 -6.125q0 -1.234375 -0.53125 -1.796875q-0.53125 -0.5625 -1.515625 -0.5625q-0.71875 0 -1.359375 0.390625q-0.640625 0.375 -0.921875 1.015625q-0.265625 0.640625 -0.265625 1.78125l0 5.296875l-1.640625 0z" fill-rule="nonzero"/></g></svg>